# xmcd CD database file
#
# Track frame offsets:
#	150
#	15239
#	27350
#	42276
#	52115
#	69080
#	81827
#	103717
#	117092
#	137040
#	163566
#	178075
#
# Disc length: 2594 seconds
#
# Revision: 0
# Processed by: cddbd v1.5.2PL0 Copyright (c) Steve Scherf et al.
# Submitted via: CDex 1.70beta2
#
DISCID=940a200c
DTITLE=Friederike Kempner - Ihr wißt wohl, wen ich meine
DYEAR=2005
DGENRE=Blues
TTITLE0=Unnütz lyrisches Gesinge - Zur Erinnerung - Blümlein auf der Au - Auf meinem Gesicht - Lied - An Lita zu P.
TTITLE1=Willst Du nach den Sternen fragen - Drei Schlagworte - Menschliche Hilfe ist bald kaput
TTITLE2=Wirklichkeit - Du lässest den Menschen steigen - Kalt ist die Welt - Kennst Du das Land
TTITLE3=Es scheint der Mond ins Zimmer - Der Traum der Poesie - Dichterleben, Himmelsgabe - Der Himmel ist blau
TTITLE4=Wintergemälde - Die Jagd
TTITLE5=Ein anständiger Mensch nennt sich - Es stürmt so viel auf mich herein - Die Fenster sind gefroren - O ist's denn ganz unmöglich - Heiße Tränen fließen, rauschen
TTITLE6=Es ringt der Regen mit dem Winde - Der Traum der Poesie - Das scheintote Kind - Logik
TTITLE7=Bitterer als der Tod ist Leben - Wanderlied
TTITLE8=Es geht die Zeit den sichern Gang - Klara Wuras - Das Lied der braven Frau - Kennt ihr sie nicht die böse bunte Schlange - Das Tier
TTITLE9=Ihr wißt wohl, wen ich meine - Heine - Vogelin-Prinzess - Mir träumte, daß ich stund - Lord Byron
TTITLE10=De Goldfischer - Die Gefangenen - Zum 70sten Geburtstage
TTITLE11=Leipziger Lerchen - Weißt Du was, ich will Dir sagen - Wie so manches Samenkörnchen - Grüne Saaten, grüne Blätter - Seht ihr die grauen Föhren - Poesie ist Leben
EXTD=YEAR: 2005
EXTT0=
EXTT1=
EXTT2=
EXTT3=
EXTT4=
EXTT5=
EXTT6=
EXTT7=
EXTT8=
EXTT9=
EXTT10=
EXTT11=
PLAYORDER=
